<svg width="29" height="30" viewBox="0 0 29 30" fill="none" xmlns="http://www.w3.org/2000/svg">
<g filter="url(#filter0_i_364_2)">
<path d="M3.82467 11.703C3.14467 11.039 1.47267 8.61699 2.09067 6.51599C2.82567 4.01499 5.52467 4.08699 6.58267 4.80499C7.72267 5.57799 8.72267 5.80499 9.70367 4.84999C10.4727 4.10199 10.4337 1.84399 8.26167 1.67999" stroke="url(#paint0_linear_364_2)" stroke-width="1.938" stroke-linecap="round"/>
<path d="M3.82467 11.703C3.14467 11.039 1.47267 8.61699 2.09067 6.51599C2.82567 4.01499 5.52467 4.08699 6.58267 4.80499C7.72267 5.57799 8.72267 5.80499 9.70367 4.84999C10.4727 4.10199 10.4337 1.84399 8.26167 1.67999" stroke="url(#paint1_radial_364_2)" stroke-width="1.938" stroke-linecap="round"/>
<path d="M3.82467 11.703C3.14467 11.039 1.47267 8.61699 2.09067 6.51599C2.82567 4.01499 5.52467 4.08699 6.58267 4.80499C7.72267 5.57799 8.72267 5.80499 9.70367 4.84999C10.4727 4.10199 10.4337 1.84399 8.26167 1.67999" stroke="url(#paint2_radial_364_2)" stroke-width="1.938" stroke-linecap="round"/>
<path d="M3.82467 11.703C3.14467 11.039 1.47267 8.61699 2.09067 6.51599C2.82567 4.01499 5.52467 4.08699 6.58267 4.80499C7.72267 5.57799 8.72267 5.80499 9.70367 4.84999C10.4727 4.10199 10.4337 1.84399 8.26167 1.67999" stroke="url(#paint3_radial_364_2)" stroke-width="1.938" stroke-linecap="round"/>
</g>
<path d="M3.82467 11.703C3.14467 11.039 1.47267 8.61699 2.09067 6.51599C2.82567 4.01499 5.52467 4.08699 6.58267 4.80499C7.72267 5.57799 8.72267 5.80499 9.70367 4.84999C10.4727 4.10199 10.4337 1.84399 8.26167 1.67999" stroke="url(#paint4_radial_364_2)" stroke-width="1.938" stroke-linecap="round"/>
<path d="M3.82467 11.703C3.14467 11.039 1.47267 8.61699 2.09067 6.51599C2.82567 4.01499 5.52467 4.08699 6.58267 4.80499C7.72267 5.57799 8.72267 5.80499 9.70367 4.84999C10.4727 4.10199 10.4337 1.84399 8.26167 1.67999" stroke="url(#paint5_radial_364_2)" stroke-width="1.938" stroke-linecap="round"/>
<path d="M3.82467 11.703C3.14467 11.039 1.47267 8.61699 2.09067 6.51599C2.82567 4.01499 5.52467 4.08699 6.58267 4.80499C7.72267 5.57799 8.72267 5.80499 9.70367 4.84999C10.4727 4.10199 10.4337 1.84399 8.26167 1.67999" stroke="url(#paint6_radial_364_2)" stroke-width="1.938" stroke-linecap="round"/>
<path d="M3.82467 11.703C3.14467 11.039 1.47267 8.61699 2.09067 6.51599C2.82567 4.01499 5.52467 4.08699 6.58267 4.80499C7.72267 5.57799 8.72267 5.80499 9.70367 4.84999C10.4727 4.10199 10.4337 1.84399 8.26167 1.67999" stroke="url(#paint7_radial_364_2)" stroke-width="1.938" stroke-linecap="round"/>
<path d="M3.82467 11.703C3.14467 11.039 1.47267 8.61699 2.09067 6.51599C2.82567 4.01499 5.52467 4.08699 6.58267 4.80499C7.72267 5.57799 8.72267 5.80499 9.70367 4.84999C10.4727 4.10199 10.4337 1.84399 8.26167 1.67999" stroke="url(#paint8_radial_364_2)" stroke-width="1.938" stroke-linecap="round"/>
<g filter="url(#filter1_f_364_2)">
<path d="M4.21483 4.73401C3.46483 4.84401 2.29283 5.51901 2.16783 7.34401C2.06283 8.87901 3.31883 10.698 3.77783 11.25" stroke="url(#paint9_linear_364_2)" stroke-width="0.8" stroke-linecap="round"/>
</g>
<g filter="url(#filter2_i_364_2)">
<path d="M2.5249 17.828L3.7169 19.02C3.9869 19.29 4.4169 19.29 4.6869 19.02L5.8299 17.828H2.5249Z" fill="#FFDDFF"/>
</g>
<g filter="url(#filter3_i_364_2)">
<path d="M5.24365 17.79L6.45065 19.02C6.72065 19.29 7.15065 19.29 7.42065 19.02L8.62665 17.79H5.24365Z" fill="#FFDDFF"/>
</g>
<g filter="url(#filter4_i_364_2)">
<path d="M7.83789 17.75L9.16989 19.02C9.43989 19.29 9.86989 19.29 10.1399 19.02L11.2439 17.75H7.83789Z" fill="#FFDDFF"/>
</g>
<path d="M17.0098 18H23.5198C26.4998 18 28.5558 15.99 28.5558 13.5V12.187C28.5558 11.607 28.2608 11.063 27.6808 11.063H17.5458L17.0098 18Z" fill="#E13A8E"/>
<path d="M17.0098 18H23.5198C26.4998 18 28.5558 15.99 28.5558 13.5V12.187C28.5558 11.607 28.2608 11.063 27.6808 11.063H17.5458L17.0098 18Z" fill="url(#paint10_radial_364_2)"/>
<path d="M17.0098 18H23.5198C26.4998 18 28.5558 15.99 28.5558 13.5V12.187C28.5558 11.607 28.2608 11.063 27.6808 11.063H17.5458L17.0098 18Z" fill="url(#paint11_linear_364_2)"/>
<path d="M17.0098 18H23.5198C26.4998 18 28.5558 15.99 28.5558 13.5V12.187C28.5558 11.607 28.2608 11.063 27.6808 11.063H17.5458L17.0098 18Z" fill="url(#paint12_radial_364_2)"/>
<path d="M17.666 28.92H24.196C27.074 28.92 28.666 26.516 28.666 22.76V19.11C28.666 18.38 28.066 17.969 27.336 17.969H17.666V28.92V28.92Z" fill="#E13A8E"/>
<path d="M17.666 28.92H24.196C27.074 28.92 28.666 26.516 28.666 22.76V19.11C28.666 18.38 28.066 17.969 27.336 17.969H17.666V28.92V28.92Z" fill="url(#paint13_linear_364_2)"/>
<path d="M17.666 28.92H24.196C27.074 28.92 28.666 26.516 28.666 22.76V19.11C28.666 18.38 28.066 17.969 27.336 17.969H17.666V28.92V28.92Z" fill="url(#paint14_radial_364_2)"/>
<path d="M17.666 28.92H24.196C27.074 28.92 28.666 26.516 28.666 22.76V19.11C28.666 18.38 28.066 17.969 27.336 17.969H17.666V28.92V28.92Z" fill="url(#paint15_linear_364_2)"/>
<path d="M17.666 28.92H24.196C27.074 28.92 28.666 26.516 28.666 22.76V19.11C28.666 18.38 28.066 17.969 27.336 17.969H17.666V28.92V28.92Z" fill="url(#paint16_radial_364_2)"/>
<path d="M25.5529 4H20.8679C19.3919 4 18.0489 4.92 17.4589 6.34L15.8689 10.17C15.7069 10.56 15.9829 11 16.3829 11H18.3349C18.5549 11 18.7549 10.86 18.8489 10.65L20.2389 7.42C20.2931 7.29754 20.3811 7.19303 20.4924 7.11867C20.6038 7.0443 20.734 7.00314 20.8679 7H22.7529C24.0009 7 25.1239 6.21 25.5999 5L25.8289 4.43C25.9139 4.23 25.7619 4 25.5529 4V4Z" fill="#F1B74E"/>
<path d="M25.5529 4H20.8679C19.3919 4 18.0489 4.92 17.4589 6.34L15.8689 10.17C15.7069 10.56 15.9829 11 16.3829 11H18.3349C18.5549 11 18.7549 10.86 18.8489 10.65L20.2389 7.42C20.2931 7.29754 20.3811 7.19303 20.4924 7.11867C20.6038 7.0443 20.734 7.00314 20.8679 7H22.7529C24.0009 7 25.1239 6.21 25.5999 5L25.8289 4.43C25.9139 4.23 25.7619 4 25.5529 4V4Z" fill="url(#paint17_radial_364_2)"/>
<path d="M25.5529 4H20.8679C19.3919 4 18.0489 4.92 17.4589 6.34L15.8689 10.17C15.7069 10.56 15.9829 11 16.3829 11H18.3349C18.5549 11 18.7549 10.86 18.8489 10.65L20.2389 7.42C20.2931 7.29754 20.3811 7.19303 20.4924 7.11867C20.6038 7.0443 20.734 7.00314 20.8679 7H22.7529C24.0009 7 25.1239 6.21 25.5999 5L25.8289 4.43C25.9139 4.23 25.7619 4 25.5529 4V4Z" fill="url(#paint18_radial_364_2)"/>
<path d="M25.5529 4H20.8679C19.3919 4 18.0489 4.92 17.4589 6.34L15.8689 10.17C15.7069 10.56 15.9829 11 16.3829 11H18.3349C18.5549 11 18.7549 10.86 18.8489 10.65L20.2389 7.42C20.2931 7.29754 20.3811 7.19303 20.4924 7.11867C20.6038 7.0443 20.734 7.00314 20.8679 7H22.7529C24.0009 7 25.1239 6.21 25.5999 5L25.8289 4.43C25.9139 4.23 25.7619 4 25.5529 4V4Z" fill="url(#paint19_radial_364_2)"/>
<path d="M25.5529 4H20.8679C19.3919 4 18.0489 4.92 17.4589 6.34L15.8689 10.17C15.7069 10.56 15.9829 11 16.3829 11H18.3349C18.5549 11 18.7549 10.86 18.8489 10.65L20.2389 7.42C20.2931 7.29754 20.3811 7.19303 20.4924 7.11867C20.6038 7.0443 20.734 7.00314 20.8679 7H22.7529C24.0009 7 25.1239 6.21 25.5999 5L25.8289 4.43C25.9139 4.23 25.7619 4 25.5529 4V4Z" fill="url(#paint20_linear_364_2)"/>
<g filter="url(#filter5_i_364_2)">
<path d="M11.5538 6.749L11.8538 6.234C11.9538 6.047 12.4938 5.078 13.4158 5.078H15.1578C15.7198 5.078 16.0328 5.648 16.0328 5.984C16.0328 6.375 15.8138 7 15.1578 7H14.3838C14.3204 6.99999 14.2581 7.01707 14.2036 7.04945C14.149 7.08183 14.1042 7.12831 14.0738 7.184C14.0167 7.31729 13.9657 7.4531 13.9208 7.591C13.908 7.62847 13.9042 7.66846 13.9099 7.70767C13.9155 7.74688 13.9305 7.78417 13.9535 7.81644C13.9765 7.84871 14.0068 7.87503 14.042 7.89322C14.0772 7.9114 14.1162 7.92093 14.1558 7.921H25.6898C25.9398 7.921 26.1098 8.151 26.0598 8.391L25.7298 10.351C25.4298 11.551 24.3498 12.391 23.1198 12.391H21.4098L21.4698 12.461C22.0098 13.061 22.3098 13.831 22.3098 14.641L22.2998 22.061V22.421L22.2598 23.461C22.2498 23.631 22.2298 23.811 22.2098 23.981L22.1498 24.501C22.1346 24.6218 22.1146 24.7418 22.0898 24.861L22.0598 25.021L21.9598 25.531C21.9398 25.644 21.9098 25.758 21.8818 25.871C21.6436 26.8224 21.3162 27.7492 20.9038 28.639C20.8649 28.7234 20.8026 28.7949 20.7242 28.8449C20.6459 28.8949 20.5548 28.9213 20.4618 28.921H6.57984C6.42484 28.928 6.05584 28.943 6.05584 28.531C6.05584 28.113 6.56984 27.947 7.12584 27.767L7.27584 27.719C8.50584 27.314 10.3478 26.652 11.3458 25.712C12.0408 25.066 12.1488 24.277 12.2698 23.384L12.2758 23.339C12.2797 23.3106 12.2774 23.2817 12.2692 23.2543C12.261 23.2268 12.2469 23.2014 12.2281 23.1798C12.2093 23.1582 12.186 23.1409 12.1599 23.1291C12.1338 23.1172 12.1055 23.111 12.0768 23.111H5.14684C3.50684 23.111 2.07684 21.771 2.08684 20.521C2.08684 20.191 2.35484 20.034 2.68484 20.034H8.23584C8.72784 20.034 9.40884 19.718 9.75884 19.368L10.9338 18.088C10.9468 18.0737 10.9553 18.0559 10.9584 18.0368C10.9614 18.0177 10.9589 17.9982 10.951 17.9805C10.9432 17.9628 10.9304 17.9478 10.9142 17.9372C10.8981 17.9267 10.8792 17.921 10.8598 17.921H1.82984C0.869844 17.921 0.0898438 17.141 0.0898438 16.181V12.381C0.100342 11.7249 0.368362 11.0993 0.83607 10.639C1.30378 10.1788 1.93368 9.92092 2.58984 9.921C3.18984 9.921 3.92484 10.061 4.35484 10.421L4.44084 10.493C4.72084 10.729 5.03984 10.999 5.40184 10.999L8.43984 10.891C8.93984 10.891 9.37984 10.591 9.56984 10.141L10.0098 9.421C10.0363 9.37495 10.064 9.3296 10.0928 9.285C10.5108 8.539 11.1728 7.405 11.5548 6.749H11.5538Z" fill="url(#paint21_linear_364_2)"/>
<path d="M11.5538 6.749L11.8538 6.234C11.9538 6.047 12.4938 5.078 13.4158 5.078H15.1578C15.7198 5.078 16.0328 5.648 16.0328 5.984C16.0328 6.375 15.8138 7 15.1578 7H14.3838C14.3204 6.99999 14.2581 7.01707 14.2036 7.04945C14.149 7.08183 14.1042 7.12831 14.0738 7.184C14.0167 7.31729 13.9657 7.4531 13.9208 7.591C13.908 7.62847 13.9042 7.66846 13.9099 7.70767C13.9155 7.74688 13.9305 7.78417 13.9535 7.81644C13.9765 7.84871 14.0068 7.87503 14.042 7.89322C14.0772 7.9114 14.1162 7.92093 14.1558 7.921H25.6898C25.9398 7.921 26.1098 8.151 26.0598 8.391L25.7298 10.351C25.4298 11.551 24.3498 12.391 23.1198 12.391H21.4098L21.4698 12.461C22.0098 13.061 22.3098 13.831 22.3098 14.641L22.2998 22.061V22.421L22.2598 23.461C22.2498 23.631 22.2298 23.811 22.2098 23.981L22.1498 24.501C22.1346 24.6218 22.1146 24.7418 22.0898 24.861L22.0598 25.021L21.9598 25.531C21.9398 25.644 21.9098 25.758 21.8818 25.871C21.6436 26.8224 21.3162 27.7492 20.9038 28.639C20.8649 28.7234 20.8026 28.7949 20.7242 28.8449C20.6459 28.8949 20.5548 28.9213 20.4618 28.921H6.57984C6.42484 28.928 6.05584 28.943 6.05584 28.531C6.05584 28.113 6.56984 27.947 7.12584 27.767L7.27584 27.719C8.50584 27.314 10.3478 26.652 11.3458 25.712C12.0408 25.066 12.1488 24.277 12.2698 23.384L12.2758 23.339C12.2797 23.3106 12.2774 23.2817 12.2692 23.2543C12.261 23.2268 12.2469 23.2014 12.2281 23.1798C12.2093 23.1582 12.186 23.1409 12.1599 23.1291C12.1338 23.1172 12.1055 23.111 12.0768 23.111H5.14684C3.50684 23.111 2.07684 21.771 2.08684 20.521C2.08684 20.191 2.35484 20.034 2.68484 20.034H8.23584C8.72784 20.034 9.40884 19.718 9.75884 19.368L10.9338 18.088C10.9468 18.0737 10.9553 18.0559 10.9584 18.0368C10.9614 18.0177 10.9589 17.9982 10.951 17.9805C10.9432 17.9628 10.9304 17.9478 10.9142 17.9372C10.8981 17.9267 10.8792 17.921 10.8598 17.921H1.82984C0.869844 17.921 0.0898438 17.141 0.0898438 16.181V12.381C0.100342 11.7249 0.368362 11.0993 0.83607 10.639C1.30378 10.1788 1.93368 9.92092 2.58984 9.921C3.18984 9.921 3.92484 10.061 4.35484 10.421L4.44084 10.493C4.72084 10.729 5.03984 10.999 5.40184 10.999L8.43984 10.891C8.93984 10.891 9.37984 10.591 9.56984 10.141L10.0098 9.421C10.0363 9.37495 10.064 9.3296 10.0928 9.285C10.5108 8.539 11.1728 7.405 11.5548 6.749H11.5538Z" fill="url(#paint22_linear_364_2)"/>
</g>
<path d="M11.5539 6.749L11.8539 6.234C11.9539 6.047 12.4939 5.078 13.4159 5.078H15.1579C15.7199 5.078 16.0329 5.648 16.0329 5.984C16.0329 6.375 15.8139 7 15.1579 7H14.3839C14.3204 6.99999 14.2582 7.01707 14.2036 7.04945C14.1491 7.08183 14.1042 7.12831 14.0739 7.184C14.0168 7.31729 13.9657 7.4531 13.9209 7.591C13.908 7.62847 13.9042 7.66846 13.9099 7.70767C13.9156 7.74688 13.9305 7.78417 13.9535 7.81644C13.9765 7.84871 14.0068 7.87503 14.042 7.89322C14.0772 7.9114 14.1163 7.92093 14.1559 7.921H25.6899C25.9399 7.921 26.1099 8.151 26.0599 8.391L25.7299 10.351C25.4299 11.551 24.3499 12.391 23.1199 12.391H21.4099L21.4699 12.461C22.0099 13.061 22.3099 13.831 22.3099 14.641L22.2999 22.061V22.421L22.2599 23.461C22.2499 23.631 22.2299 23.811 22.2099 23.981L22.1499 24.501C22.1347 24.6218 22.1146 24.7418 22.0899 24.861L22.0599 25.021L21.9599 25.531C21.9399 25.644 21.9099 25.758 21.8819 25.871C21.6437 26.8224 21.3162 27.7492 20.9039 28.639C20.865 28.7234 20.8026 28.7949 20.7243 28.8449C20.6459 28.8949 20.5548 28.9213 20.4619 28.921H6.57987C6.42487 28.928 6.05587 28.943 6.05587 28.531C6.05587 28.113 6.56987 27.947 7.12587 27.767L7.27587 27.719C8.50587 27.314 10.3479 26.652 11.3459 25.712C12.0409 25.066 12.1489 24.277 12.2699 23.384L12.2759 23.339C12.2797 23.3106 12.2774 23.2817 12.2692 23.2543C12.261 23.2268 12.247 23.2014 12.2281 23.1798C12.2093 23.1582 12.186 23.1409 12.1599 23.1291C12.1339 23.1172 12.1055 23.111 12.0769 23.111H5.14687C3.50687 23.111 2.07687 21.771 2.08687 20.521C2.08687 20.191 2.35487 20.034 2.68487 20.034H8.23587C8.72787 20.034 9.40887 19.718 9.75887 19.368L10.7029 18.34C10.736 18.3043 10.758 18.2597 10.7661 18.2117C10.7742 18.1636 10.7681 18.1143 10.7486 18.0697C10.729 18.0251 10.6969 17.9871 10.6561 17.9606C10.6153 17.934 10.5676 17.9199 10.5189 17.92H1.82887C0.868867 17.92 0.0888672 17.14 0.0888672 16.18V12.38C0.0993659 11.7239 0.367386 11.0983 0.835093 10.638C1.3028 10.1778 1.9327 9.91992 2.58887 9.92C3.18887 9.92 3.92387 10.06 4.35387 10.42L4.43987 10.493C4.71987 10.729 5.03887 10.999 5.40087 10.999L8.43887 10.891C8.93887 10.891 9.37887 10.591 9.56887 10.141L10.0089 9.421C10.0353 9.37495 10.063 9.3296 10.0919 9.285C10.5099 8.539 11.1719 7.405 11.5539 6.749V6.749Z" fill="url(#paint23_radial_364_2)"/>
<path d="M11.5539 6.749L11.8539 6.234C11.9539 6.047 12.4939 5.078 13.4159 5.078H15.1579C15.7199 5.078 16.0329 5.648 16.0329 5.984C16.0329 6.375 15.8139 7 15.1579 7H14.3839C14.3204 6.99999 14.2582 7.01707 14.2036 7.04945C14.1491 7.08183 14.1042 7.12831 14.0739 7.184C14.0168 7.31729 13.9657 7.4531 13.9209 7.591C13.908 7.62847 13.9042 7.66846 13.9099 7.70767C13.9156 7.74688 13.9305 7.78417 13.9535 7.81644C13.9765 7.84871 14.0068 7.87503 14.042 7.89322C14.0772 7.9114 14.1163 7.92093 14.1559 7.921H25.6899C25.9399 7.921 26.1099 8.151 26.0599 8.391L25.7299 10.351C25.4299 11.551 24.3499 12.391 23.1199 12.391H21.4099L21.4699 12.461C22.0099 13.061 22.3099 13.831 22.3099 14.641L22.2999 22.061V22.421L22.2599 23.461C22.2499 23.631 22.2299 23.811 22.2099 23.981L22.1499 24.501C22.1347 24.6218 22.1146 24.7418 22.0899 24.861L22.0599 25.021L21.9599 25.531C21.9399 25.644 21.9099 25.758 21.8819 25.871C21.6437 26.8224 21.3162 27.7492 20.9039 28.639C20.865 28.7234 20.8026 28.7949 20.7243 28.8449C20.6459 28.8949 20.5548 28.9213 20.4619 28.921H6.57987C6.42487 28.928 6.05587 28.943 6.05587 28.531C6.05587 28.113 6.56987 27.947 7.12587 27.767L7.27587 27.719C8.50587 27.314 10.3479 26.652 11.3459 25.712C12.0409 25.066 12.1489 24.277 12.2699 23.384L12.2759 23.339C12.2797 23.3106 12.2774 23.2817 12.2692 23.2543C12.261 23.2268 12.247 23.2014 12.2281 23.1798C12.2093 23.1582 12.186 23.1409 12.1599 23.1291C12.1339 23.1172 12.1055 23.111 12.0769 23.111H5.14687C3.50687 23.111 2.07687 21.771 2.08687 20.521C2.08687 20.191 2.35487 20.034 2.68487 20.034H8.23587C8.72787 20.034 9.40887 19.718 9.75887 19.368L10.7029 18.34C10.736 18.3043 10.758 18.2597 10.7661 18.2117C10.7742 18.1636 10.7681 18.1143 10.7486 18.0697C10.729 18.0251 10.6969 17.9871 10.6561 17.9606C10.6153 17.934 10.5676 17.9199 10.5189 17.92H1.82887C0.868867 17.92 0.0888672 17.14 0.0888672 16.18V12.38C0.0993659 11.7239 0.367386 11.0983 0.835093 10.638C1.3028 10.1778 1.9327 9.91992 2.58887 9.92C3.18887 9.92 3.92387 10.06 4.35387 10.42L4.43987 10.493C4.71987 10.729 5.03887 10.999 5.40087 10.999L8.43887 10.891C8.93887 10.891 9.37887 10.591 9.56887 10.141L10.0089 9.421C10.0353 9.37495 10.063 9.3296 10.0919 9.285C10.5099 8.539 11.1719 7.405 11.5539 6.749V6.749Z" fill="url(#paint24_radial_364_2)"/>
<path d="M11.5539 6.749L11.8539 6.234C11.9539 6.047 12.4939 5.078 13.4159 5.078H15.1579C15.7199 5.078 16.0329 5.648 16.0329 5.984C16.0329 6.375 15.8139 7 15.1579 7H14.3839C14.3204 6.99999 14.2582 7.01707 14.2036 7.04945C14.1491 7.08183 14.1042 7.12831 14.0739 7.184C14.0168 7.31729 13.9657 7.4531 13.9209 7.591C13.908 7.62847 13.9042 7.66846 13.9099 7.70767C13.9156 7.74688 13.9305 7.78417 13.9535 7.81644C13.9765 7.84871 14.0068 7.87503 14.042 7.89322C14.0772 7.9114 14.1163 7.92093 14.1559 7.921H25.6899C25.9399 7.921 26.1099 8.151 26.0599 8.391L25.7299 10.351C25.4299 11.551 24.3499 12.391 23.1199 12.391H21.4099L21.4699 12.461C22.0099 13.061 22.3099 13.831 22.3099 14.641L22.2999 22.061V22.421L22.2599 23.461C22.2499 23.631 22.2299 23.811 22.2099 23.981L22.1499 24.501C22.1347 24.6218 22.1146 24.7418 22.0899 24.861L22.0599 25.021L21.9599 25.531C21.9399 25.644 21.9099 25.758 21.8819 25.871C21.6437 26.8224 21.3162 27.7492 20.9039 28.639C20.865 28.7234 20.8026 28.7949 20.7243 28.8449C20.6459 28.8949 20.5548 28.9213 20.4619 28.921H6.57987C6.42487 28.928 6.05587 28.943 6.05587 28.531C6.05587 28.113 6.56987 27.947 7.12587 27.767L7.27587 27.719C8.50587 27.314 10.3479 26.652 11.3459 25.712C12.0409 25.066 12.1489 24.277 12.2699 23.384L12.2759 23.339C12.2797 23.3106 12.2774 23.2817 12.2692 23.2543C12.261 23.2268 12.247 23.2014 12.2281 23.1798C12.2093 23.1582 12.186 23.1409 12.1599 23.1291C12.1339 23.1172 12.1055 23.111 12.0769 23.111H5.14687C3.50687 23.111 2.07687 21.771 2.08687 20.521C2.08687 20.191 2.35487 20.034 2.68487 20.034H8.23587C8.72787 20.034 9.40887 19.718 9.75887 19.368L10.7029 18.34C10.736 18.3043 10.758 18.2597 10.7661 18.2117C10.7742 18.1636 10.7681 18.1143 10.7486 18.0697C10.729 18.0251 10.6969 17.9871 10.6561 17.9606C10.6153 17.934 10.5676 17.9199 10.5189 17.92H1.82887C0.868867 17.92 0.0888672 17.14 0.0888672 16.18V12.38C0.0993659 11.7239 0.367386 11.0983 0.835093 10.638C1.3028 10.1778 1.9327 9.91992 2.58887 9.92C3.18887 9.92 3.92387 10.06 4.35387 10.42L4.43987 10.493C4.71987 10.729 5.03887 10.999 5.40087 10.999L8.43887 10.891C8.93887 10.891 9.37887 10.591 9.56887 10.141L10.0089 9.421C10.0353 9.37495 10.063 9.3296 10.0919 9.285C10.5099 8.539 11.1719 7.405 11.5539 6.749V6.749Z" fill="url(#paint25_radial_364_2)"/>
<path d="M11.5539 6.749L11.8539 6.234C11.9539 6.047 12.4939 5.078 13.4159 5.078H15.1579C15.7199 5.078 16.0329 5.648 16.0329 5.984C16.0329 6.375 15.8139 7 15.1579 7H14.3839C14.3204 6.99999 14.2582 7.01707 14.2036 7.04945C14.1491 7.08183 14.1042 7.12831 14.0739 7.184C14.0168 7.31729 13.9657 7.4531 13.9209 7.591C13.908 7.62847 13.9042 7.66846 13.9099 7.70767C13.9156 7.74688 13.9305 7.78417 13.9535 7.81644C13.9765 7.84871 14.0068 7.87503 14.042 7.89322C14.0772 7.9114 14.1163 7.92093 14.1559 7.921H25.6899C25.9399 7.921 26.1099 8.151 26.0599 8.391L25.7299 10.351C25.4299 11.551 24.3499 12.391 23.1199 12.391H21.4099L21.4699 12.461C22.0099 13.061 22.3099 13.831 22.3099 14.641L22.2999 22.061V22.421L22.2599 23.461C22.2499 23.631 22.2299 23.811 22.2099 23.981L22.1499 24.501C22.1347 24.6218 22.1146 24.7418 22.0899 24.861L22.0599 25.021L21.9599 25.531C21.9399 25.644 21.9099 25.758 21.8819 25.871C21.6437 26.8224 21.3162 27.7492 20.9039 28.639C20.865 28.7234 20.8026 28.7949 20.7243 28.8449C20.6459 28.8949 20.5548 28.9213 20.4619 28.921H6.57987C6.42487 28.928 6.05587 28.943 6.05587 28.531C6.05587 28.113 6.56987 27.947 7.12587 27.767L7.27587 27.719C8.50587 27.314 10.3479 26.652 11.3459 25.712C12.0409 25.066 12.1489 24.277 12.2699 23.384L12.2759 23.339C12.2797 23.3106 12.2774 23.2817 12.2692 23.2543C12.261 23.2268 12.247 23.2014 12.2281 23.1798C12.2093 23.1582 12.186 23.1409 12.1599 23.1291C12.1339 23.1172 12.1055 23.111 12.0769 23.111H5.14687C3.50687 23.111 2.07687 21.771 2.08687 20.521C2.08687 20.191 2.35487 20.034 2.68487 20.034H8.23587C8.72787 20.034 9.40887 19.718 9.75887 19.368L10.7029 18.34C10.736 18.3043 10.758 18.2597 10.7661 18.2117C10.7742 18.1636 10.7681 18.1143 10.7486 18.0697C10.729 18.0251 10.6969 17.9871 10.6561 17.9606C10.6153 17.934 10.5676 17.9199 10.5189 17.92H1.82887C0.868867 17.92 0.0888672 17.14 0.0888672 16.18V12.38C0.0993659 11.7239 0.367386 11.0983 0.835093 10.638C1.3028 10.1778 1.9327 9.91992 2.58887 9.92C3.18887 9.92 3.92387 10.06 4.35387 10.42L4.43987 10.493C4.71987 10.729 5.03887 10.999 5.40087 10.999L8.43887 10.891C8.93887 10.891 9.37887 10.591 9.56887 10.141L10.0089 9.421C10.0353 9.37495 10.063 9.3296 10.0919 9.285C10.5099 8.539 11.1719 7.405 11.5539 6.749V6.749Z" fill="url(#paint26_linear_364_2)"/>
<path d="M11.5539 6.749L11.8539 6.234C11.9539 6.047 12.4939 5.078 13.4159 5.078H15.1579C15.7199 5.078 16.0329 5.648 16.0329 5.984C16.0329 6.375 15.8139 7 15.1579 7H14.3839C14.3204 6.99999 14.2582 7.01707 14.2036 7.04945C14.1491 7.08183 14.1042 7.12831 14.0739 7.184C14.0168 7.31729 13.9657 7.4531 13.9209 7.591C13.908 7.62847 13.9042 7.66846 13.9099 7.70767C13.9156 7.74688 13.9305 7.78417 13.9535 7.81644C13.9765 7.84871 14.0068 7.87503 14.042 7.89322C14.0772 7.9114 14.1163 7.92093 14.1559 7.921H25.6899C25.9399 7.921 26.1099 8.151 26.0599 8.391L25.7299 10.351C25.4299 11.551 24.3499 12.391 23.1199 12.391H21.4099L21.4699 12.461C22.0099 13.061 22.3099 13.831 22.3099 14.641L22.2999 22.061V22.421L22.2599 23.461C22.2499 23.631 22.2299 23.811 22.2099 23.981L22.1499 24.501C22.1347 24.6218 22.1146 24.7418 22.0899 24.861L22.0599 25.021L21.9599 25.531C21.9399 25.644 21.9099 25.758 21.8819 25.871C21.6437 26.8224 21.3162 27.7492 20.9039 28.639C20.865 28.7234 20.8026 28.7949 20.7243 28.8449C20.6459 28.8949 20.5548 28.9213 20.4619 28.921H6.57987C6.42487 28.928 6.05587 28.943 6.05587 28.531C6.05587 28.113 6.56987 27.947 7.12587 27.767L7.27587 27.719C8.50587 27.314 10.3479 26.652 11.3459 25.712C12.0409 25.066 12.1489 24.277 12.2699 23.384L12.2759 23.339C12.2797 23.3106 12.2774 23.2817 12.2692 23.2543C12.261 23.2268 12.247 23.2014 12.2281 23.1798C12.2093 23.1582 12.186 23.1409 12.1599 23.1291C12.1339 23.1172 12.1055 23.111 12.0769 23.111H5.14687C3.50687 23.111 2.07687 21.771 2.08687 20.521C2.08687 20.191 2.35487 20.034 2.68487 20.034H8.23587C8.72787 20.034 9.40887 19.718 9.75887 19.368L10.7029 18.34C10.736 18.3043 10.758 18.2597 10.7661 18.2117C10.7742 18.1636 10.7681 18.1143 10.7486 18.0697C10.729 18.0251 10.6969 17.9871 10.6561 17.9606C10.6153 17.934 10.5676 17.9199 10.5189 17.92H1.82887C0.868867 17.92 0.0888672 17.14 0.0888672 16.18V12.38C0.0993659 11.7239 0.367386 11.0983 0.835093 10.638C1.3028 10.1778 1.9327 9.91992 2.58887 9.92C3.18887 9.92 3.92387 10.06 4.35387 10.42L4.43987 10.493C4.71987 10.729 5.03887 10.999 5.40087 10.999L8.43887 10.891C8.93887 10.891 9.37887 10.591 9.56887 10.141L10.0089 9.421C10.0353 9.37495 10.063 9.3296 10.0919 9.285C10.5099 8.539 11.1719 7.405 11.5539 6.749V6.749Z" fill="url(#paint27_linear_364_2)"/>
<path d="M11.5539 6.749L11.8539 6.234C11.9539 6.047 12.4939 5.078 13.4159 5.078H15.1579C15.7199 5.078 16.0329 5.648 16.0329 5.984C16.0329 6.375 15.8139 7 15.1579 7H14.3839C14.3204 6.99999 14.2582 7.01707 14.2036 7.04945C14.1491 7.08183 14.1042 7.12831 14.0739 7.184C14.0168 7.31729 13.9657 7.4531 13.9209 7.591C13.908 7.62847 13.9042 7.66846 13.9099 7.70767C13.9156 7.74688 13.9305 7.78417 13.9535 7.81644C13.9765 7.84871 14.0068 7.87503 14.042 7.89322C14.0772 7.9114 14.1163 7.92093 14.1559 7.921H25.6899C25.9399 7.921 26.1099 8.151 26.0599 8.391L25.7299 10.351C25.4299 11.551 24.3499 12.391 23.1199 12.391H21.4099L21.4699 12.461C22.0099 13.061 22.3099 13.831 22.3099 14.641L22.2999 22.061V22.421L22.2599 23.461C22.2499 23.631 22.2299 23.811 22.2099 23.981L22.1499 24.501C22.1347 24.6218 22.1146 24.7418 22.0899 24.861L22.0599 25.021L21.9599 25.531C21.9399 25.644 21.9099 25.758 21.8819 25.871C21.6437 26.8224 21.3162 27.7492 20.9039 28.639C20.865 28.7234 20.8026 28.7949 20.7243 28.8449C20.6459 28.8949 20.5548 28.9213 20.4619 28.921H6.57987C6.42487 28.928 6.05587 28.943 6.05587 28.531C6.05587 28.113 6.56987 27.947 7.12587 27.767L7.27587 27.719C8.50587 27.314 10.3479 26.652 11.3459 25.712C12.0409 25.066 12.1489 24.277 12.2699 23.384L12.2759 23.339C12.2797 23.3106 12.2774 23.2817 12.2692 23.2543C12.261 23.2268 12.247 23.2014 12.2281 23.1798C12.2093 23.1582 12.186 23.1409 12.1599 23.1291C12.1339 23.1172 12.1055 23.111 12.0769 23.111H5.14687C3.50687 23.111 2.07687 21.771 2.08687 20.521C2.08687 20.191 2.35487 20.034 2.68487 20.034H8.23587C8.72787 20.034 9.40887 19.718 9.75887 19.368L10.7029 18.34C10.736 18.3043 10.758 18.2597 10.7661 18.2117C10.7742 18.1636 10.7681 18.1143 10.7486 18.0697C10.729 18.0251 10.6969 17.9871 10.6561 17.9606C10.6153 17.934 10.5676 17.9199 10.5189 17.92H1.82887C0.868867 17.92 0.0888672 17.14 0.0888672 16.18V12.38C0.0993659 11.7239 0.367386 11.0983 0.835093 10.638C1.3028 10.1778 1.9327 9.91992 2.58887 9.92C3.18887 9.92 3.92387 10.06 4.35387 10.42L4.43987 10.493C4.71987 10.729 5.03887 10.999 5.40087 10.999L8.43887 10.891C8.93887 10.891 9.37887 10.591 9.56887 10.141L10.0089 9.421C10.0353 9.37495 10.063 9.3296 10.0919 9.285C10.5099 8.539 11.1719 7.405 11.5539 6.749V6.749Z" fill="url(#paint28_radial_364_2)"/>
<path d="M11.5539 6.749L11.8539 6.234C11.9539 6.047 12.4939 5.078 13.4159 5.078H15.1579C15.7199 5.078 16.0329 5.648 16.0329 5.984C16.0329 6.375 15.8139 7 15.1579 7H14.3839C14.3204 6.99999 14.2582 7.01707 14.2036 7.04945C14.1491 7.08183 14.1042 7.12831 14.0739 7.184C14.0168 7.31729 13.9657 7.4531 13.9209 7.591C13.908 7.62847 13.9042 7.66846 13.9099 7.70767C13.9156 7.74688 13.9305 7.78417 13.9535 7.81644C13.9765 7.84871 14.0068 7.87503 14.042 7.89322C14.0772 7.9114 14.1163 7.92093 14.1559 7.921H25.6899C25.9399 7.921 26.1099 8.151 26.0599 8.391L25.7299 10.351C25.4299 11.551 24.3499 12.391 23.1199 12.391H21.4099L21.4699 12.461C22.0099 13.061 22.3099 13.831 22.3099 14.641L22.2999 22.061V22.421L22.2599 23.461C22.2499 23.631 22.2299 23.811 22.2099 23.981L22.1499 24.501C22.1347 24.6218 22.1146 24.7418 22.0899 24.861L22.0599 25.021L21.9599 25.531C21.9399 25.644 21.9099 25.758 21.8819 25.871C21.6437 26.8224 21.3162 27.7492 20.9039 28.639C20.865 28.7234 20.8026 28.7949 20.7243 28.8449C20.6459 28.8949 20.5548 28.9213 20.4619 28.921H6.57987C6.42487 28.928 6.05587 28.943 6.05587 28.531C6.05587 28.113 6.56987 27.947 7.12587 27.767L7.27587 27.719C8.50587 27.314 10.3479 26.652 11.3459 25.712C12.0409 25.066 12.1489 24.277 12.2699 23.384L12.2759 23.339C12.2797 23.3106 12.2774 23.2817 12.2692 23.2543C12.261 23.2268 12.247 23.2014 12.2281 23.1798C12.2093 23.1582 12.186 23.1409 12.1599 23.1291C12.1339 23.1172 12.1055 23.111 12.0769 23.111H5.14687C3.50687 23.111 2.07687 21.771 2.08687 20.521C2.08687 20.191 2.35487 20.034 2.68487 20.034H8.23587C8.72787 20.034 9.40887 19.718 9.75887 19.368L10.7029 18.34C10.736 18.3043 10.758 18.2597 10.7661 18.2117C10.7742 18.1636 10.7681 18.1143 10.7486 18.0697C10.729 18.0251 10.6969 17.9871 10.6561 17.9606C10.6153 17.934 10.5676 17.9199 10.5189 17.92H1.82887C0.868867 17.92 0.0888672 17.14 0.0888672 16.18V12.38C0.0993659 11.7239 0.367386 11.0983 0.835093 10.638C1.3028 10.1778 1.9327 9.91992 2.58887 9.92C3.18887 9.92 3.92387 10.06 4.35387 10.42L4.43987 10.493C4.71987 10.729 5.03887 10.999 5.40087 10.999L8.43887 10.891C8.93887 10.891 9.37887 10.591 9.56887 10.141L10.0089 9.421C10.0353 9.37495 10.063 9.3296 10.0919 9.285C10.5099 8.539 11.1719 7.405 11.5539 6.749V6.749Z" fill="url(#paint29_radial_364_2)"/>
<path d="M11.5539 6.749L11.8539 6.234C11.9539 6.047 12.4939 5.078 13.4159 5.078H15.1579C15.7199 5.078 16.0329 5.648 16.0329 5.984C16.0329 6.375 15.8139 7 15.1579 7H14.3839C14.3204 6.99999 14.2582 7.01707 14.2036 7.04945C14.1491 7.08183 14.1042 7.12831 14.0739 7.184C14.0168 7.31729 13.9657 7.4531 13.9209 7.591C13.908 7.62847 13.9042 7.66846 13.9099 7.70767C13.9156 7.74688 13.9305 7.78417 13.9535 7.81644C13.9765 7.84871 14.0068 7.87503 14.042 7.89322C14.0772 7.9114 14.1163 7.92093 14.1559 7.921H25.6899C25.9399 7.921 26.1099 8.151 26.0599 8.391L25.7299 10.351C25.4299 11.551 24.3499 12.391 23.1199 12.391H21.4099L21.4699 12.461C22.0099 13.061 22.3099 13.831 22.3099 14.641L22.2999 22.061V22.421L22.2599 23.461C22.2499 23.631 22.2299 23.811 22.2099 23.981L22.1499 24.501C22.1347 24.6218 22.1146 24.7418 22.0899 24.861L22.0599 25.021L21.9599 25.531C21.9399 25.644 21.9099 25.758 21.8819 25.871C21.6437 26.8224 21.3162 27.7492 20.9039 28.639C20.865 28.7234 20.8026 28.7949 20.7243 28.8449C20.6459 28.8949 20.5548 28.9213 20.4619 28.921H6.57987C6.42487 28.928 6.05587 28.943 6.05587 28.531C6.05587 28.113 6.56987 27.947 7.12587 27.767L7.27587 27.719C8.50587 27.314 10.3479 26.652 11.3459 25.712C12.0409 25.066 12.1489 24.277 12.2699 23.384L12.2759 23.339C12.2797 23.3106 12.2774 23.2817 12.2692 23.2543C12.261 23.2268 12.247 23.2014 12.2281 23.1798C12.2093 23.1582 12.186 23.1409 12.1599 23.1291C12.1339 23.1172 12.1055 23.111 12.0769 23.111H5.14687C3.50687 23.111 2.07687 21.771 2.08687 20.521C2.08687 20.191 2.35487 20.034 2.68487 20.034H8.23587C8.72787 20.034 9.40887 19.718 9.75887 19.368L10.7029 18.34C10.736 18.3043 10.758 18.2597 10.7661 18.2117C10.7742 18.1636 10.7681 18.1143 10.7486 18.0697C10.729 18.0251 10.6969 17.9871 10.6561 17.9606C10.6153 17.934 10.5676 17.9199 10.5189 17.92H1.82887C0.868867 17.92 0.0888672 17.14 0.0888672 16.18V12.38C0.0993659 11.7239 0.367386 11.0983 0.835093 10.638C1.3028 10.1778 1.9327 9.91992 2.58887 9.92C3.18887 9.92 3.92387 10.06 4.35387 10.42L4.43987 10.493C4.71987 10.729 5.03887 10.999 5.40087 10.999L8.43887 10.891C8.93887 10.891 9.37887 10.591 9.56887 10.141L10.0089 9.421C10.0353 9.37495 10.063 9.3296 10.0919 9.285C10.5099 8.539 11.1719 7.405 11.5539 6.749V6.749Z" fill="url(#paint30_radial_364_2)"/>
<path d="M11.5539 6.749L11.8539 6.234C11.9539 6.047 12.4939 5.078 13.4159 5.078H15.1579C15.7199 5.078 16.0329 5.648 16.0329 5.984C16.0329 6.375 15.8139 7 15.1579 7H14.3839C14.3204 6.99999 14.2582 7.01707 14.2036 7.04945C14.1491 7.08183 14.1042 7.12831 14.0739 7.184C14.0168 7.31729 13.9657 7.4531 13.9209 7.591C13.908 7.62847 13.9042 7.66846 13.9099 7.70767C13.9156 7.74688 13.9305 7.78417 13.9535 7.81644C13.9765 7.84871 14.0068 7.87503 14.042 7.89322C14.0772 7.9114 14.1163 7.92093 14.1559 7.921H25.6899C25.9399 7.921 26.1099 8.151 26.0599 8.391L25.7299 10.351C25.4299 11.551 24.3499 12.391 23.1199 12.391H21.4099L21.4699 12.461C22.0099 13.061 22.3099 13.831 22.3099 14.641L22.2999 22.061V22.421L22.2599 23.461C22.2499 23.631 22.2299 23.811 22.2099 23.981L22.1499 24.501C22.1347 24.6218 22.1146 24.7418 22.0899 24.861L22.0599 25.021L21.9599 25.531C21.9399 25.644 21.9099 25.758 21.8819 25.871C21.6437 26.8224 21.3162 27.7492 20.9039 28.639C20.865 28.7234 20.8026 28.7949 20.7243 28.8449C20.6459 28.8949 20.5548 28.9213 20.4619 28.921H6.57987C6.42487 28.928 6.05587 28.943 6.05587 28.531C6.05587 28.113 6.56987 27.947 7.12587 27.767L7.27587 27.719C8.50587 27.314 10.3479 26.652 11.3459 25.712C12.0409 25.066 12.1489 24.277 12.2699 23.384L12.2759 23.339C12.2797 23.3106 12.2774 23.2817 12.2692 23.2543C12.261 23.2268 12.247 23.2014 12.2281 23.1798C12.2093 23.1582 12.186 23.1409 12.1599 23.1291C12.1339 23.1172 12.1055 23.111 12.0769 23.111H5.14687C3.50687 23.111 2.07687 21.771 2.08687 20.521C2.08687 20.191 2.35487 20.034 2.68487 20.034H8.23587C8.72787 20.034 9.40887 19.718 9.75887 19.368L10.7029 18.34C10.736 18.3043 10.758 18.2597 10.7661 18.2117C10.7742 18.1636 10.7681 18.1143 10.7486 18.0697C10.729 18.0251 10.6969 17.9871 10.6561 17.9606C10.6153 17.934 10.5676 17.9199 10.5189 17.92H1.82887C0.868867 17.92 0.0888672 17.14 0.0888672 16.18V12.38C0.0993659 11.7239 0.367386 11.0983 0.835093 10.638C1.3028 10.1778 1.9327 9.91992 2.58887 9.92C3.18887 9.92 3.92387 10.06 4.35387 10.42L4.43987 10.493C4.71987 10.729 5.03887 10.999 5.40087 10.999L8.43887 10.891C8.93887 10.891 9.37887 10.591 9.56887 10.141L10.0089 9.421C10.0353 9.37495 10.063 9.3296 10.0919 9.285C10.5099 8.539 11.1719 7.405 11.5539 6.749V6.749Z" fill="url(#paint31_radial_364_2)"/>
<path d="M11.5539 6.749L11.8539 6.234C11.9539 6.047 12.4939 5.078 13.4159 5.078H15.1579C15.7199 5.078 16.0329 5.648 16.0329 5.984C16.0329 6.375 15.8139 7 15.1579 7H14.3839C14.3204 6.99999 14.2582 7.01707 14.2036 7.04945C14.1491 7.08183 14.1042 7.12831 14.0739 7.184C14.0168 7.31729 13.9657 7.4531 13.9209 7.591C13.908 7.62847 13.9042 7.66846 13.9099 7.70767C13.9156 7.74688 13.9305 7.78417 13.9535 7.81644C13.9765 7.84871 14.0068 7.87503 14.042 7.89322C14.0772 7.9114 14.1163 7.92093 14.1559 7.921H25.6899C25.9399 7.921 26.1099 8.151 26.0599 8.391L25.7299 10.351C25.4299 11.551 24.3499 12.391 23.1199 12.391H21.4099L21.4699 12.461C22.0099 13.061 22.3099 13.831 22.3099 14.641L22.2999 22.061V22.421L22.2599 23.461C22.2499 23.631 22.2299 23.811 22.2099 23.981L22.1499 24.501C22.1347 24.6218 22.1146 24.7418 22.0899 24.861L22.0599 25.021L21.9599 25.531C21.9399 25.644 21.9099 25.758 21.8819 25.871C21.6437 26.8224 21.3162 27.7492 20.9039 28.639C20.865 28.7234 20.8026 28.7949 20.7243 28.8449C20.6459 28.8949 20.5548 28.9213 20.4619 28.921H6.57987C6.42487 28.928 6.05587 28.943 6.05587 28.531C6.05587 28.113 6.56987 27.947 7.12587 27.767L7.27587 27.719C8.50587 27.314 10.3479 26.652 11.3459 25.712C12.0409 25.066 12.1489 24.277 12.2699 23.384L12.2759 23.339C12.2797 23.3106 12.2774 23.2817 12.2692 23.2543C12.261 23.2268 12.247 23.2014 12.2281 23.1798C12.2093 23.1582 12.186 23.1409 12.1599 23.1291C12.1339 23.1172 12.1055 23.111 12.0769 23.111H5.14687C3.50687 23.111 2.07687 21.771 2.08687 20.521C2.08687 20.191 2.35487 20.034 2.68487 20.034H8.23587C8.72787 20.034 9.40887 19.718 9.75887 19.368L10.7029 18.34C10.736 18.3043 10.758 18.2597 10.7661 18.2117C10.7742 18.1636 10.7681 18.1143 10.7486 18.0697C10.729 18.0251 10.6969 17.9871 10.6561 17.9606C10.6153 17.934 10.5676 17.9199 10.5189 17.92H1.82887C0.868867 17.92 0.0888672 17.14 0.0888672 16.18V12.38C0.0993659 11.7239 0.367386 11.0983 0.835093 10.638C1.3028 10.1778 1.9327 9.91992 2.58887 9.92C3.18887 9.92 3.92387 10.06 4.35387 10.42L4.43987 10.493C4.71987 10.729 5.03887 10.999 5.40087 10.999L8.43887 10.891C8.93887 10.891 9.37887 10.591 9.56887 10.141L10.0089 9.421C10.0353 9.37495 10.063 9.3296 10.0919 9.285C10.5099 8.539 11.1719 7.405 11.5539 6.749V6.749Z" fill="url(#paint32_radial_364_2)"/>
<path d="M2.34988 16.03C1.81988 16.03 1.37988 15.617 1.37988 15.1V12.93C1.37988 12.422 1.80988 12 2.34988 12C2.87988 12 3.31988 12.413 3.31988 12.93V15.1C3.31079 15.3507 3.20443 15.588 3.02336 15.7616C2.84229 15.9352 2.60073 16.0315 2.34988 16.03V16.03Z" fill="url(#paint33_linear_364_2)"/>
<path d="M2.34988 16.03C1.81988 16.03 1.37988 15.617 1.37988 15.1V12.93C1.37988 12.422 1.80988 12 2.34988 12C2.87988 12 3.31988 12.413 3.31988 12.93V15.1C3.31079 15.3507 3.20443 15.588 3.02336 15.7616C2.84229 15.9352 2.60073 16.0315 2.34988 16.03V16.03Z" fill="url(#paint34_radial_364_2)"/>
<g filter="url(#filter6_f_364_2)">
<path d="M12.533 12.281H12.532C12.1349 12.281 11.813 12.6029 11.813 13V15.109C11.813 15.5061 12.1349 15.828 12.532 15.828H12.533C12.9301 15.828 13.252 15.5061 13.252 15.109V13C13.252 12.6029 12.9301 12.281 12.533 12.281Z" fill="#2F9776"/>
</g>
<path d="M13.7748 12.898C13.7748 12.4623 13.4215 12.109 12.9858 12.109C12.55 12.109 12.1968 12.4623 12.1968 12.898V15.211C12.1968 15.6468 12.55 16 12.9858 16C13.4215 16 13.7748 15.6468 13.7748 15.211V12.898Z" fill="url(#paint35_linear_364_2)"/>
<path d="M13.7748 12.898C13.7748 12.4623 13.4215 12.109 12.9858 12.109C12.55 12.109 12.1968 12.4623 12.1968 12.898V15.211C12.1968 15.6468 12.55 16 12.9858 16C13.4215 16 13.7748 15.6468 13.7748 15.211V12.898Z" fill="url(#paint36_linear_364_2)"/>
<path d="M13.7748 12.898C13.7748 12.4623 13.4215 12.109 12.9858 12.109C12.55 12.109 12.1968 12.4623 12.1968 12.898V15.211C12.1968 15.6468 12.55 16 12.9858 16C13.4215 16 13.7748 15.6468 13.7748 15.211V12.898Z" fill="url(#paint37_radial_364_2)"/>
<path d="M12.0861 23.11C12.1142 23.1113 12.1418 23.1184 12.167 23.1309C12.1922 23.1435 12.2145 23.1611 12.2325 23.1828C12.2505 23.2044 12.2637 23.2296 12.2714 23.2567C12.2791 23.2838 12.281 23.3122 12.2771 23.34L12.2711 23.384C12.1491 24.277 12.0421 25.066 11.3461 25.712C10.3491 26.652 8.50711 27.314 7.27811 27.719L7.12811 27.767C6.57111 27.947 6.05811 28.113 6.05811 28.53C6.05811 28.943 6.42611 28.928 6.58111 28.922L6.62111 28.921H12.5911C13.3111 28.325 14.4131 26.596 15.0561 25.025C15.6191 23.652 14.9181 23.108 14.1031 23.108H12.0861V23.111V23.11Z" fill="#FFD85A"/>
<path d="M12.0861 23.11C12.1142 23.1113 12.1418 23.1184 12.167 23.1309C12.1922 23.1435 12.2145 23.1611 12.2325 23.1828C12.2505 23.2044 12.2637 23.2296 12.2714 23.2567C12.2791 23.2838 12.281 23.3122 12.2771 23.34L12.2711 23.384C12.1491 24.277 12.0421 25.066 11.3461 25.712C10.3491 26.652 8.50711 27.314 7.27811 27.719L7.12811 27.767C6.57111 27.947 6.05811 28.113 6.05811 28.53C6.05811 28.943 6.42611 28.928 6.58111 28.922L6.62111 28.921H12.5911C13.3111 28.325 14.4131 26.596 15.0561 25.025C15.6191 23.652 14.9181 23.108 14.1031 23.108H12.0861V23.111V23.11Z" fill="url(#paint38_radial_364_2)"/>
<path d="M12.0861 23.11C12.1142 23.1113 12.1418 23.1184 12.167 23.1309C12.1922 23.1435 12.2145 23.1611 12.2325 23.1828C12.2505 23.2044 12.2637 23.2296 12.2714 23.2567C12.2791 23.2838 12.281 23.3122 12.2771 23.34L12.2711 23.384C12.1491 24.277 12.0421 25.066 11.3461 25.712C10.3491 26.652 8.50711 27.314 7.27811 27.719L7.12811 27.767C6.57111 27.947 6.05811 28.113 6.05811 28.53C6.05811 28.943 6.42611 28.928 6.58111 28.922L6.62111 28.921H12.5911C13.3111 28.325 14.4131 26.596 15.0561 25.025C15.6191 23.652 14.9181 23.108 14.1031 23.108H12.0861V23.111V23.11Z" fill="url(#paint39_radial_364_2)"/>
<path d="M12.0861 23.11C12.1142 23.1113 12.1418 23.1184 12.167 23.1309C12.1922 23.1435 12.2145 23.1611 12.2325 23.1828C12.2505 23.2044 12.2637 23.2296 12.2714 23.2567C12.2791 23.2838 12.281 23.3122 12.2771 23.34L12.2711 23.384C12.1491 24.277 12.0421 25.066 11.3461 25.712C10.3491 26.652 8.50711 27.314 7.27811 27.719L7.12811 27.767C6.57111 27.947 6.05811 28.113 6.05811 28.53C6.05811 28.943 6.42611 28.928 6.58111 28.922L6.62111 28.921H12.5911C13.3111 28.325 14.4131 26.596 15.0561 25.025C15.6191 23.652 14.9181 23.108 14.1031 23.108H12.0861V23.111V23.11Z" fill="url(#paint40_linear_364_2)"/>
<g filter="url(#filter7_f_364_2)">
<path d="M2.34879 12.826C2.34879 12.6631 2.21671 12.531 2.05379 12.531C1.89086 12.531 1.75879 12.6631 1.75879 12.826V15.204C1.75879 15.3669 1.89086 15.499 2.05379 15.499C2.21671 15.499 2.34879 15.3669 2.34879 15.204V12.826Z" fill="#5BABA0"/>
</g>
<g filter="url(#filter8_f_364_2)">
<path d="M27.6518 18.5C27.8608 18.49 28.2768 18.69 28.2768 19.265V22.719C28.2768 24.687 27.7768 27.469 25.7148 28.219" stroke="url(#paint41_linear_364_2)" stroke-width="0.25" stroke-linecap="round"/>
</g>
<g filter="url(#filter9_f_364_2)">
<path d="M27.793 11.352C27.918 11.372 28.168 11.494 28.168 11.812V13.969C28.132 14.523 27.818 15.8 26.856 16.469" stroke="url(#paint42_linear_364_2)" stroke-width="0.25" stroke-linecap="round"/>
</g>
<g filter="url(#filter10_f_364_2)">
<path d="M24.012 17.797C23.945 17.82 23.906 18.102 24.012 18.234" stroke="#E65B91" stroke-width="0.25" stroke-linecap="round"/>
</g>
<path d="M25.17 5.77002H20.87C20.6698 5.76983 20.474 5.82977 20.3082 5.9421C20.1424 6.05443 20.0141 6.21395 19.94 6.40002L19.332 7.92602H20.02L20.24 7.42002C20.2942 7.29771 20.3819 7.19331 20.4931 7.11895C20.6043 7.04459 20.7343 7.00335 20.868 7.00002H22.753C23.2239 6.997 23.6876 6.88426 24.1074 6.67075C24.5271 6.45724 24.8913 6.14884 25.171 5.77002H25.17Z" fill="url(#paint43_linear_364_2)"/>
<path d="M25.17 5.77002H20.87C20.6698 5.76983 20.474 5.82977 20.3082 5.9421C20.1424 6.05443 20.0141 6.21395 19.94 6.40002L19.332 7.92602H20.02L20.24 7.42002C20.2942 7.29771 20.3819 7.19331 20.4931 7.11895C20.6043 7.04459 20.7343 7.00335 20.868 7.00002H22.753C23.2239 6.997 23.6876 6.88426 24.1074 6.67075C24.5271 6.45724 24.8913 6.14884 25.171 5.77002H25.17Z" fill="url(#paint44_linear_364_2)"/>
<g filter="url(#filter11_f_364_2)">
<path d="M19.0591 7.56302L19.5551 6.43702C19.6348 6.25652 19.766 6.10362 19.9324 5.99757C20.0988 5.89151 20.2928 5.83705 20.4901 5.84102L23.7621 5.90602" stroke="#E3A652"/>
</g>
<g filter="url(#filter12_f_364_2)">
<path d="M8.41797 1.65601C8.99597 1.65601 10.308 2.16401 10.308 3.88301" stroke="url(#paint45_linear_364_2)" stroke-width="0.6" stroke-linecap="round"/>
</g>
<g filter="url(#filter13_f_364_2)">
<path d="M19.918 12.563C20.356 12.729 21.231 13.463 21.231 15.063V22.938C21.272 23.958 20.793 26.313 19.606 27.813" stroke="url(#paint46_linear_364_2)" stroke-linecap="round"/>
</g>
<g filter="url(#filter14_f_364_2)">
<path d="M18.9497 10.89L20.4957 11.86H23.1527C24.1027 11.86 24.5277 11.328 24.6207 10.89H18.9497Z" fill="url(#paint47_linear_364_2)"/>
</g>
<defs>
<filter id="filter0_i_364_2" x="0.986816" y="0.610937" width="10.1396" height="12.0611" filterUnits="userSpaceOnUse" color-interpolation-filters="sRGB">
<feFlood flood-opacity="0" result="BackgroundImageFix"/>
<feBlend mode="normal" in="SourceGraphic" in2="BackgroundImageFix" result="shape"/>
<feColorMatrix in="SourceAlpha" type="matrix" values="0 0 0 0 0 0 0 0 0 0 0 0 0 0 0 0 0 0 127 0" result="hardAlpha"/>
<feOffset dy="-0.1"/>
<feGaussianBlur stdDeviation="0.25"/>
<feComposite in2="hardAlpha" operator="arithmetic" k2="-1" k3="1"/>
<feColorMatrix type="matrix" values="0 0 0 0 0.72549 0 0 0 0 0.541176 0 0 0 0 0.329412 0 0 0 1 0"/>
<feBlend mode="normal" in2="shape" result="effect1_innerShadow_364_2"/>
</filter>
<filter id="filter1_f_364_2" x="1.26172" y="3.83398" width="3.85303" height="8.31604" filterUnits="userSpaceOnUse" color-interpolation-filters="sRGB">
<feFlood flood-opacity="0" result="BackgroundImageFix"/>
<feBlend mode="normal" in="SourceGraphic" in2="BackgroundImageFix" result="shape"/>
<feGaussianBlur stdDeviation="0.25" result="effect1_foregroundBlur_364_2"/>
</filter>
<filter id="filter2_i_364_2" x="2.5249" y="17.828" width="3.30518" height="1.39453" filterUnits="userSpaceOnUse" color-interpolation-filters="sRGB">
<feFlood flood-opacity="0" result="BackgroundImageFix"/>
<feBlend mode="normal" in="SourceGraphic" in2="BackgroundImageFix" result="shape"/>
<feColorMatrix in="SourceAlpha" type="matrix" values="0 0 0 0 0 0 0 0 0 0 0 0 0 0 0 0 0 0 127 0" result="hardAlpha"/>
<feOffset/>
<feGaussianBlur stdDeviation="0.2"/>
<feComposite in2="hardAlpha" operator="arithmetic" k2="-1" k3="1"/>
<feColorMatrix type="matrix" values="0 0 0 0 0.741042 0 0 0 0 0.657222 0 0 0 0 0.933333 0 0 0 1 0"/>
<feBlend mode="normal" in2="shape" result="effect1_innerShadow_364_2"/>
</filter>
<filter id="filter3_i_364_2" x="5.24365" y="17.79" width="3.38281" height="1.4325" filterUnits="userSpaceOnUse" color-interpolation-filters="sRGB">
<feFlood flood-opacity="0" result="BackgroundImageFix"/>
<feBlend mode="normal" in="SourceGraphic" in2="BackgroundImageFix" result="shape"/>
<feColorMatrix in="SourceAlpha" type="matrix" values="0 0 0 0 0 0 0 0 0 0 0 0 0 0 0 0 0 0 127 0" result="hardAlpha"/>
<feOffset/>
<feGaussianBlur stdDeviation="0.2"/>
<feComposite in2="hardAlpha" operator="arithmetic" k2="-1" k3="1"/>
<feColorMatrix type="matrix" values="0 0 0 0 0.741042 0 0 0 0 0.657222 0 0 0 0 0.933333 0 0 0 1 0"/>
<feBlend mode="normal" in2="shape" result="effect1_innerShadow_364_2"/>
</filter>
<filter id="filter4_i_364_2" x="7.83789" y="17.75" width="3.40576" height="1.47247" filterUnits="userSpaceOnUse" color-interpolation-filters="sRGB">
<feFlood flood-opacity="0" result="BackgroundImageFix"/>
<feBlend mode="normal" in="SourceGraphic" in2="BackgroundImageFix" result="shape"/>
<feColorMatrix in="SourceAlpha" type="matrix" values="0 0 0 0 0 0 0 0 0 0 0 0 0 0 0 0 0 0 127 0" result="hardAlpha"/>
<feOffset/>
<feGaussianBlur stdDeviation="0.2"/>
<feComposite in2="hardAlpha" operator="arithmetic" k2="-1" k3="1"/>
<feColorMatrix type="matrix" values="0 0 0 0 0.741042 0 0 0 0 0.657222 0 0 0 0 0.933333 0 0 0 1 0"/>
<feBlend mode="normal" in2="shape" result="effect1_innerShadow_364_2"/>
</filter>
<filter id="filter5_i_364_2" x="0.0898438" y="5.078" width="26.2785" height="24.1452" filterUnits="userSpaceOnUse" color-interpolation-filters="sRGB">
<feFlood flood-opacity="0" result="BackgroundImageFix"/>
<feBlend mode="normal" in="SourceGraphic" in2="BackgroundImageFix" result="shape"/>
<feColorMatrix in="SourceAlpha" type="matrix" values="0 0 0 0 0 0 0 0 0 0 0 0 0 0 0 0 0 0 127 0" result="hardAlpha"/>
<feOffset dx="0.3" dy="0.3"/>
<feGaussianBlur stdDeviation="0.75"/>
<feComposite in2="hardAlpha" operator="arithmetic" k2="-1" k3="1"/>
<feColorMatrix type="matrix" values="0 0 0 0 0.203922 0 0 0 0 0.607843 0 0 0 0 0.466667 0 0 0 1 0"/>
<feBlend mode="normal" in2="shape" result="effect1_innerShadow_364_2"/>
</filter>
<filter id="filter6_f_364_2" x="10.813" y="11.281" width="3.43896" height="5.547" filterUnits="userSpaceOnUse" color-interpolation-filters="sRGB">
<feFlood flood-opacity="0" result="BackgroundImageFix"/>
<feBlend mode="normal" in="SourceGraphic" in2="BackgroundImageFix" result="shape"/>
<feGaussianBlur stdDeviation="0.5" result="effect1_foregroundBlur_364_2"/>
</filter>
<filter id="filter7_f_364_2" x="1.00879" y="11.781" width="2.08984" height="4.46802" filterUnits="userSpaceOnUse" color-interpolation-filters="sRGB">
<feFlood flood-opacity="0" result="BackgroundImageFix"/>
<feBlend mode="normal" in="SourceGraphic" in2="BackgroundImageFix" result="shape"/>
<feGaussianBlur stdDeviation="0.375" result="effect1_foregroundBlur_364_2"/>
</filter>
<filter id="filter8_f_364_2" x="25.0898" y="17.8746" width="3.81201" height="10.9694" filterUnits="userSpaceOnUse" color-interpolation-filters="sRGB">
<feFlood flood-opacity="0" result="BackgroundImageFix"/>
<feBlend mode="normal" in="SourceGraphic" in2="BackgroundImageFix" result="shape"/>
<feGaussianBlur stdDeviation="0.25" result="effect1_foregroundBlur_364_2"/>
</filter>
<filter id="filter9_f_364_2" x="26.231" y="10.727" width="2.56201" height="6.367" filterUnits="userSpaceOnUse" color-interpolation-filters="sRGB">
<feFlood flood-opacity="0" result="BackgroundImageFix"/>
<feBlend mode="normal" in="SourceGraphic" in2="BackgroundImageFix" result="shape"/>
<feGaussianBlur stdDeviation="0.25" result="effect1_foregroundBlur_364_2"/>
</filter>
<filter id="filter10_f_364_2" x="23.5213" y="17.3719" width="0.915918" height="1.28707" filterUnits="userSpaceOnUse" color-interpolation-filters="sRGB">
<feFlood flood-opacity="0" result="BackgroundImageFix"/>
<feBlend mode="normal" in="SourceGraphic" in2="BackgroundImageFix" result="shape"/>
<feGaussianBlur stdDeviation="0.15" result="effect1_foregroundBlur_364_2"/>
</filter>
<filter id="filter11_f_364_2" x="17.3516" y="4.09082" width="7.67041" height="4.92377" filterUnits="userSpaceOnUse" color-interpolation-filters="sRGB">
<feFlood flood-opacity="0" result="BackgroundImageFix"/>
<feBlend mode="normal" in="SourceGraphic" in2="BackgroundImageFix" result="shape"/>
<feGaussianBlur stdDeviation="0.625" result="effect1_foregroundBlur_364_2"/>
</filter>
<filter id="filter12_f_364_2" x="7.11816" y="0.356018" width="4.48975" height="4.82697" filterUnits="userSpaceOnUse" color-interpolation-filters="sRGB">
<feFlood flood-opacity="0" result="BackgroundImageFix"/>
<feBlend mode="normal" in="SourceGraphic" in2="BackgroundImageFix" result="shape"/>
<feGaussianBlur stdDeviation="0.5" result="effect1_foregroundBlur_364_2"/>
</filter>
<filter id="filter13_f_364_2" x="17.856" y="10.8129" width="5.12744" height="18.7501" filterUnits="userSpaceOnUse" color-interpolation-filters="sRGB">
<feFlood flood-opacity="0" result="BackgroundImageFix"/>
<feBlend mode="normal" in="SourceGraphic" in2="BackgroundImageFix" result="shape"/>
<feGaussianBlur stdDeviation="0.625" result="effect1_foregroundBlur_364_2"/>
</filter>
<filter id="filter14_f_364_2" x="17.9497" y="9.89001" width="7.6709" height="2.96997" filterUnits="userSpaceOnUse" color-interpolation-filters="sRGB">
<feFlood flood-opacity="0" result="BackgroundImageFix"/>
<feBlend mode="normal" in="SourceGraphic" in2="BackgroundImageFix" result="shape"/>
<feGaussianBlur stdDeviation="0.5" result="effect1_foregroundBlur_364_2"/>
</filter>
<linearGradient id="paint0_linear_364_2" x1="11.0847" y1="-0.955007" x2="5.61067" y2="9.32499" gradientUnits="userSpaceOnUse">
<stop stop-color="#FADA54"/>
<stop offset="1" stop-color="#DC9825"/>
</linearGradient>
<radialGradient id="paint1_radial_364_2" cx="0" cy="0" r="1" gradientUnits="userSpaceOnUse" gradientTransform="translate(4.84031 7.187) rotate(-103.87) scale(2.60727 2.86841)">
<stop offset="0.413" stop-color="#E7A053"/>
<stop offset="1" stop-color="#E7A053" stop-opacity="0"/>
</radialGradient>
<radialGradient id="paint2_radial_364_2" cx="0" cy="0" r="1" gradientUnits="userSpaceOnUse" gradientTransform="translate(2.22767 10.48) rotate(-72.122) scale(2.14671 2.57097)">
<stop stop-color="#C69C3B"/>
<stop offset="1" stop-color="#C69C3B" stop-opacity="0"/>
</radialGradient>
<radialGradient id="paint3_radial_364_2" cx="0" cy="0" r="1" gradientUnits="userSpaceOnUse" gradientTransform="translate(7.09567 1.41099) rotate(12.8627) scale(1.97565 1.95225)">
<stop stop-color="#DBBD3D"/>
<stop offset="0.709" stop-color="#DBBD3D" stop-opacity="0"/>
</radialGradient>
<radialGradient id="paint4_radial_364_2" cx="0" cy="0" r="1" gradientUnits="userSpaceOnUse" gradientTransform="translate(11.0897 1.53099) rotate(132.421) scale(1.22764 6.40325)">
<stop stop-color="#FFEC52"/>
<stop offset="1" stop-color="#FFEC52" stop-opacity="0"/>
</radialGradient>
<radialGradient id="paint5_radial_364_2" cx="0" cy="0" r="1" gradientUnits="userSpaceOnUse" gradientTransform="translate(7.09567 1.41099) rotate(12.8627) scale(1.97565 1.95225)">
<stop stop-color="#DBBD3D"/>
<stop offset="0.709" stop-color="#DBBD3D" stop-opacity="0"/>
</radialGradient>
<radialGradient id="paint6_radial_364_2" cx="0" cy="0" r="1" gradientUnits="userSpaceOnUse" gradientTransform="translate(8.80867 3.60199) scale(1.30469 1.54687)">
<stop offset="0.281" stop-color="#E2AA43"/>
<stop offset="0.998" stop-color="#E2AA43" stop-opacity="0"/>
</radialGradient>
<radialGradient id="paint7_radial_364_2" cx="0" cy="0" r="1" gradientUnits="userSpaceOnUse" gradientTransform="translate(8.80867 3.60199) scale(1.30469 1.32031)">
<stop offset="0.281" stop-color="#E1B36C"/>
<stop offset="0.599" stop-color="#E1B36C" stop-opacity="0"/>
</radialGradient>
<radialGradient id="paint8_radial_364_2" cx="0" cy="0" r="1" gradientUnits="userSpaceOnUse" gradientTransform="translate(5.76211 7.06249) rotate(-148.346) scale(3.78128 2.88156)">
<stop offset="0.257" stop-color="#D89347"/>
<stop offset="1" stop-color="#D89347" stop-opacity="0"/>
</radialGradient>
<linearGradient id="paint9_linear_364_2" x1="2.16183" y1="9.59401" x2="-0.0521736" y2="5.66101" gradientUnits="userSpaceOnUse">
<stop stop-color="#F9C95B"/>
<stop offset="1" stop-color="#F9C95B" stop-opacity="0"/>
</linearGradient>
<radialGradient id="paint10_radial_364_2" cx="0" cy="0" r="1" gradientUnits="userSpaceOnUse" gradientTransform="translate(21.8341 11.9931) rotate(30.884) scale(7.38046 6.59551)">
<stop offset="0.854" stop-color="#D12366" stop-opacity="0"/>
<stop offset="1" stop-color="#D12366"/>
</radialGradient>
<linearGradient id="paint11_linear_364_2" x1="27.5748" y1="13.141" x2="27.5748" y2="10.964" gradientUnits="userSpaceOnUse">
<stop offset="0.771" stop-color="#D12366" stop-opacity="0"/>
<stop offset="1" stop-color="#D12366"/>
</linearGradient>
<radialGradient id="paint12_radial_364_2" cx="0" cy="0" r="1" gradientUnits="userSpaceOnUse" gradientTransform="translate(21.2298 12.188) rotate(40.1009) scale(2.3287 5.47012)">
<stop stop-color="#CF2766"/>
<stop offset="1" stop-color="#CF2766" stop-opacity="0"/>
</radialGradient>
<linearGradient id="paint13_linear_364_2" x1="23.166" y1="30.5" x2="23.166" y2="22.813" gradientUnits="userSpaceOnUse">
<stop stop-color="#BF3E85"/>
<stop offset="1" stop-color="#BF3E85" stop-opacity="0"/>
</linearGradient>
<radialGradient id="paint14_radial_364_2" cx="0" cy="0" r="1" gradientUnits="userSpaceOnUse" gradientTransform="translate(22.262 19.438) rotate(68.199) scale(9.9289 9.13338)">
<stop offset="0.905" stop-color="#BC2F9C" stop-opacity="0"/>
<stop offset="1" stop-color="#BC2F9C"/>
</radialGradient>
<linearGradient id="paint15_linear_364_2" x1="27.731" y1="21.25" x2="27.731" y2="17.813" gradientUnits="userSpaceOnUse">
<stop offset="0.771" stop-color="#D12366" stop-opacity="0"/>
<stop offset="1" stop-color="#D12366"/>
</linearGradient>
<radialGradient id="paint16_radial_364_2" cx="0" cy="0" r="1" gradientUnits="userSpaceOnUse" gradientTransform="translate(23.387 17.969) scale(1.85938 1.8675)">
<stop stop-color="#E13A8E"/>
<stop offset="1" stop-color="#E13A8E" stop-opacity="0"/>
</radialGradient>
<radialGradient id="paint17_radial_364_2" cx="0" cy="0" r="1" gradientUnits="userSpaceOnUse" gradientTransform="translate(22.1999 9.031) rotate(-122.574) scale(5.34 7.55281)">
<stop offset="0.823" stop-color="#D7AE4F" stop-opacity="0"/>
<stop offset="1" stop-color="#D7AE4F"/>
</radialGradient>
<radialGradient id="paint18_radial_364_2" cx="0" cy="0" r="1" gradientUnits="userSpaceOnUse" gradientTransform="translate(25.6839 4.266) rotate(155.072) scale(3.67005 0.719243)">
<stop stop-color="#FFD465"/>
<stop offset="0.66" stop-color="#FFD465" stop-opacity="0"/>
</radialGradient>
<radialGradient id="paint19_radial_364_2" cx="0" cy="0" r="1" gradientUnits="userSpaceOnUse" gradientTransform="translate(16.5739 8.234) scale(2.5 3.58259)">
<stop stop-color="#938036"/>
<stop offset="1" stop-color="#938036" stop-opacity="0"/>
</radialGradient>
<linearGradient id="paint20_linear_364_2" x1="24.9339" y1="6.375" x2="24.1839" y2="5.531" gradientUnits="userSpaceOnUse">
<stop stop-color="#DAAB57"/>
<stop offset="1" stop-color="#DAAB57" stop-opacity="0"/>
</linearGradient>
<linearGradient id="paint21_linear_364_2" x1="28.2928" y1="28.125" x2="13.0778" y2="13.688" gradientUnits="userSpaceOnUse">
<stop stop-color="#57CBA4"/>
<stop offset="1" stop-color="#4AB297"/>
</linearGradient>
<linearGradient id="paint22_linear_364_2" x1="15.6608" y1="29.844" x2="15.6608" y2="26.625" gradientUnits="userSpaceOnUse">
<stop offset="0.126" stop-color="#7897CC"/>
<stop offset="1" stop-color="#7897CC" stop-opacity="0"/>
</linearGradient>
<radialGradient id="paint23_radial_364_2" cx="0" cy="0" r="1" gradientUnits="userSpaceOnUse" gradientTransform="translate(26.0669 8.094) rotate(150.445) scale(2.47079 0.651605)">
<stop stop-color="#65C89A"/>
<stop offset="1" stop-color="#65C89A" stop-opacity="0"/>
</radialGradient>
<radialGradient id="paint24_radial_364_2" cx="0" cy="0" r="1" gradientUnits="userSpaceOnUse" gradientTransform="translate(14.1369 7.687) rotate(147.004) scale(1.26244 0.304087)">
<stop stop-color="#65C89A"/>
<stop offset="1" stop-color="#65C89A" stop-opacity="0"/>
</radialGradient>
<radialGradient id="paint25_radial_364_2" cx="0" cy="0" r="1" gradientUnits="userSpaceOnUse" gradientTransform="translate(15.9179 5.937) rotate(170.727) scale(1.55152 0.919212)">
<stop stop-color="#65C89A"/>
<stop offset="1" stop-color="#65C89A" stop-opacity="0"/>
</radialGradient>
<linearGradient id="paint26_linear_364_2" x1="-0.644133" y1="14.75" x2="1.98087" y2="14.75" gradientUnits="userSpaceOnUse">
<stop stop-color="#3DA57B"/>
<stop offset="1" stop-color="#3DA57B" stop-opacity="0"/>
</linearGradient>
<linearGradient id="paint27_linear_364_2" x1="-0.0511328" y1="14.75" x2="0.495867" y2="14.75" gradientUnits="userSpaceOnUse">
<stop stop-color="#85C3A1"/>
<stop offset="1" stop-color="#85C3A1" stop-opacity="0"/>
</linearGradient>
<radialGradient id="paint28_radial_364_2" cx="0" cy="0" r="1" gradientUnits="userSpaceOnUse" gradientTransform="translate(4.47987 10.906) rotate(131.055) scale(1.28468 2.18624)">
<stop stop-color="#54BF8D"/>
<stop offset="1" stop-color="#54BF8D" stop-opacity="0"/>
</radialGradient>
<radialGradient id="paint29_radial_364_2" cx="0" cy="0" r="1" gradientUnits="userSpaceOnUse" gradientTransform="translate(14.5197 7.27289) rotate(-165.15) scale(1.06689 0.81434)">
<stop offset="0.029" stop-color="#0E8D61"/>
<stop offset="1" stop-color="#0E8D61" stop-opacity="0"/>
</radialGradient>
<radialGradient id="paint30_radial_364_2" cx="0" cy="0" r="1" gradientUnits="userSpaceOnUse" gradientTransform="translate(7.44987 23.469) rotate(-90) scale(2.4375 12.0937)">
<stop stop-color="#6B9BAB"/>
<stop offset="0.654" stop-color="#6B9BAB" stop-opacity="0"/>
</radialGradient>
<radialGradient id="paint31_radial_364_2" cx="0" cy="0" r="1" gradientUnits="userSpaceOnUse" gradientTransform="translate(4.19987 18.125) rotate(-90) scale(2.53125 13.7187)">
<stop stop-color="#6B9BAB"/>
<stop offset="0.467" stop-color="#6B9BAB" stop-opacity="0"/>
</radialGradient>
<radialGradient id="paint32_radial_364_2" cx="0" cy="0" r="1" gradientUnits="userSpaceOnUse" gradientTransform="translate(2.44987 22.281) rotate(-19.0935) scale(1.7196 4.32967)">
<stop stop-color="#6DAFA5"/>
<stop offset="1" stop-color="#6DAFA5" stop-opacity="0"/>
</radialGradient>
<linearGradient id="paint33_linear_364_2" x1="2.62088" y1="15.141" x2="2.62088" y2="12.172" gradientUnits="userSpaceOnUse">
<stop stop-color="#1D946D"/>
<stop offset="1" stop-color="#19766C"/>
</linearGradient>
<radialGradient id="paint34_radial_364_2" cx="0" cy="0" r="1" gradientUnits="userSpaceOnUse" gradientTransform="translate(2.34988 12) rotate(90) scale(1.89062 1.41565)">
<stop stop-color="#417B8B"/>
<stop offset="1" stop-color="#417B8B" stop-opacity="0"/>
</radialGradient>
<linearGradient id="paint35_linear_364_2" x1="13.7748" y1="13.812" x2="12.8608" y2="13.812" gradientUnits="userSpaceOnUse">
<stop offset="0.225" stop-color="#594C4F"/>
<stop offset="1" stop-color="#392833"/>
</linearGradient>
<linearGradient id="paint36_linear_364_2" x1="14.0218" y1="15.818" x2="14.0218" y2="13.964" gradientUnits="userSpaceOnUse">
<stop stop-color="#492847"/>
<stop offset="1" stop-color="#552D52" stop-opacity="0"/>
</linearGradient>
<radialGradient id="paint37_radial_364_2" cx="0" cy="0" r="1" gradientUnits="userSpaceOnUse" gradientTransform="translate(13.1558 14.361) rotate(-102.084) scale(2.25139 2.00552)">
<stop offset="0.814" stop-color="#594C4F" stop-opacity="0"/>
<stop offset="1" stop-color="#594C4F"/>
</radialGradient>
<radialGradient id="paint38_radial_364_2" cx="0" cy="0" r="1" gradientUnits="userSpaceOnUse" gradientTransform="translate(11.0741 24.875) rotate(25.0169) scale(2.06912 5.92228)">
<stop stop-color="#F2CB3F"/>
<stop offset="1" stop-color="#F2CB3F" stop-opacity="0"/>
</radialGradient>
<radialGradient id="paint39_radial_364_2" cx="0" cy="0" r="1" gradientUnits="userSpaceOnUse" gradientTransform="translate(8.20011 26.938) rotate(49.316) scale(4.69791 10.7811)">
<stop offset="0.035" stop-color="#B0BB44"/>
<stop offset="1" stop-color="#B0BB44" stop-opacity="0"/>
</radialGradient>
<linearGradient id="paint40_linear_364_2" x1="10.4491" y1="29.625" x2="10.4491" y2="27.75" gradientUnits="userSpaceOnUse">
<stop stop-color="#C4A58D"/>
<stop offset="1" stop-color="#C4A58D" stop-opacity="0"/>
</linearGradient>
<linearGradient id="paint41_linear_364_2" x1="26.9958" y1="18.5" x2="26.9958" y2="28.39" gradientUnits="userSpaceOnUse">
<stop stop-color="#FF81B4"/>
<stop offset="1" stop-color="#FF81B4" stop-opacity="0"/>
</linearGradient>
<linearGradient id="paint42_linear_364_2" x1="27.512" y1="11.352" x2="27.512" y2="16.559" gradientUnits="userSpaceOnUse">
<stop stop-color="#FF81B4"/>
<stop offset="1" stop-color="#FF81B4" stop-opacity="0"/>
</linearGradient>
<linearGradient id="paint43_linear_364_2" x1="22.694" y1="7.29702" x2="22.694" y2="6.25002" gradientUnits="userSpaceOnUse">
<stop stop-color="#8C8337"/>
<stop offset="1" stop-color="#8C8337" stop-opacity="0"/>
</linearGradient>
<linearGradient id="paint44_linear_364_2" x1="19.692" y1="7.57002" x2="20.418" y2="7.64102" gradientUnits="userSpaceOnUse">
<stop stop-color="#F1B74E"/>
<stop offset="1" stop-color="#F1B74E" stop-opacity="0"/>
</linearGradient>
<linearGradient id="paint45_linear_364_2" x1="10.137" y1="2.06301" x2="10.527" y2="4.84401" gradientUnits="userSpaceOnUse">
<stop stop-color="#FFF35F"/>
<stop offset="1" stop-color="#FFF35F" stop-opacity="0"/>
</linearGradient>
<linearGradient id="paint46_linear_364_2" x1="20.295" y1="23.813" x2="20.295" y2="34.5" gradientUnits="userSpaceOnUse">
<stop stop-color="#5CCDA1"/>
<stop offset="1" stop-color="#5CCDA1" stop-opacity="0"/>
</linearGradient>
<linearGradient id="paint47_linear_364_2" x1="20.3867" y1="11.859" x2="25.6987" y2="11.859" gradientUnits="userSpaceOnUse">
<stop stop-color="#47A19B"/>
<stop offset="1" stop-color="#47A19B" stop-opacity="0"/>
</linearGradient>
</defs>
</svg>
